<?xml version="1.0" ?><svg viewBox="0 0 550 550" xmlns="http://www.w3.org/2000/svg" xmlns:xlink="http://www.w3.org/1999/xlink"><defs><linearGradient gradientUnits="userSpaceOnUse" id="linear-gradient" x1="270.54" x2="270.54" y1="239.26" y2="137.45"><stop offset="0" stop-color="#fff"/><stop offset="0.12" stop-color="#e0e0e0"/><stop offset="0.43" stop-color="#939393"/><stop offset="0.69" stop-color="#5b5b5b"/><stop offset="0.88" stop-color="#383838"/><stop offset="0.98" stop-color="#2b2b2b"/></linearGradient><linearGradient id="linear-gradient-2" x1="271.22" x2="271.22" xlink:href="#linear-gradient" y1="340.54" y2="238.73"/></defs><title/><g data-name="Layer 55" id="Layer_55"><path d="M410.12,348.71a4.27,4.27,0,0,0,3.76,1.33c2.84-.34,2.91-4.66,2.91-4.66s.67-9.81.67-19.74c0-12.43-9.73-23.38-9.73-23.38S306.62,190.89,271.22,190.89,134.74,302.26,134.74,302.26,125,313.21,125,325.64c0,9.9.67,19.74.67,19.74s.1,4.32,2.92,4.66a4.38,4.38,0,0,0,3.79-1.33c11.3-9.83,101.5-87.25,138.86-87.25S398.81,338.88,410.12,348.71Z" style="fill:#fff;stroke:#000;stroke-miterlimit:10;stroke-width:0.965136289596558px"/><path d="M128.57,247.55a4.49,4.49,0,0,0,3.79-1.28c11.3-9.8,101.5-87.29,138.86-87.29s127.59,77.49,138.9,87.29a4.38,4.38,0,0,0,3.76,1.28c2.84-.27,2.91-4.6,2.91-4.6s.67-9.86.67-19.77c0-12.49-9.73-23.4-9.73-23.4S306.62,88.4,271.22,88.4,134.74,199.78,134.74,199.78,125,210.69,125,223.18c0,9.91.67,19.77.67,19.77S125.75,247.28,128.57,247.55Z" style="fill:#fff;stroke:#000;stroke-miterlimit:10;stroke-width:0.965136289596558px"/><path d="M346.22,394.94c-12.3-.3-24.78,0-24.9,0-15,0-27.26,10.38-27.26,23.21,0,13,12.24,23.53,27.26,23.53.12,0,12.6.26,24.91,0,15.06,0,27.31-10.55,27.31-23.53C373.52,405.45,361.54,395.22,346.22,394.94Zm-8.45,40.31s-4.48.15-7.87,0c-8.64,0-18-6.48-18-17s9.13-16.69,17.94-16.69a66.39,66.39,0,0,1,7.9,0c8.83,0,18,6.25,18,16.69S346.44,435.25,337.77,435.25Z" style="fill:#d4012d"/><path d="M494.88,395.58H456.12c-.65,0-2.1.14-2.1,1.7v42.07a1.6,1.6,0,0,0,1.64,1.72h16.16V405.88a2.26,2.26,0,0,1,2.34-2.32H492c4.92,0,12.23,4.45,12.23,14.13V439.3a1.8,1.8,0,0,0,1.86,1.77h15.31V418.81C521.42,405.8,509.76,395.58,494.88,395.58Z" style="fill:#d4012d"/><path d="M205,395.58H138.37a1.73,1.73,0,0,0-1.76,1.77v7.23h15.95a10.1,10.1,0,0,1,10,9.92v24.85a1.84,1.84,0,0,0,1.75,1.78h16.17v-34.2a2.35,2.35,0,0,1,2.35-2.35h23.91v-7.23A1.73,1.73,0,0,0,205,395.58Z" style="fill:#d4012d"/><path d="M125.29,395.58h-14.4a1.74,1.74,0,0,0-1.73,1.7v42.07a1.8,1.8,0,0,0,1.73,1.78H127V397.28A1.76,1.76,0,0,0,125.29,395.58Z" style="fill:#d4012d"/><path d="M273.46,424.47l0,0c8-1.85,13.16-7.54,13.16-14.18,0-7.07-6.9-14.68-18.06-14.68h-43a9.17,9.17,0,0,0-9.28,9.29v34.48a1.68,1.68,0,0,0,1.7,1.78h16.13V425h15.24c13.53,0,19.1,9.8,19.53,16.18h17.76C286.19,429.3,273.46,424.47,273.46,424.47Zm-11.32-7.57h-28v-9.09a4.09,4.09,0,0,1,4.29-4.25H262.2a6.67,6.67,0,1,1-.06,13.34Z" style="fill:#d4012d"/><path d="M56.92,401.29c1,0,4.57-.19,7.84,0A18.51,18.51,0,0,1,80.52,410a1.62,1.62,0,0,0,1.49.84H99.39c-3.76-9.5-14.68-16.27-26.21-16.27-6.3,0-17.53-.37-24.9,0-8.56.43-13.92,2.37-19.23,7a22.11,22.11,0,0,0-8,16.72c0,13,11.58,23.21,26.94,23.78,10.5.32,11.67.39,25.46,0,12.8-.43,22-6.18,25.9-16.31H82a1.63,1.63,0,0,0-1.47.88,18.17,18.17,0,0,1-15.56,8.79c-2.26,0-5.28,0-8.08,0-9-.11-18-6.43-18-17.17C38.89,407.78,48.07,401.29,56.92,401.29Z" style="fill:#d4012d"/><path d="M399.91,430.59V422H436.4v-8H399.87v-7.86a2.39,2.39,0,0,1,2.72-2.31h41.84v-6.41c0-1.9-2-1.77-2.06-1.77H383.78a1.69,1.69,0,0,0-1.77,1.77v34.49a9.18,9.18,0,0,0,9.36,9.23H442.7a1.8,1.8,0,0,0,1.73-1.69V433H402.31A2.26,2.26,0,0,1,399.91,430.59Z" style="fill:#d4012d"/><path d="M409.21,379.09a12.19,12.19,0,0,0-6.21-1.61,11.72,11.72,0,0,0-6.19,1.61c-1.72,1-2.58,2.28-2.58,3.76s.86,2.74,2.58,3.79a11.81,11.81,0,0,0,6.19,1.59,12,12,0,0,0,6.07-1.47c1.55-.91,3.22-2.5,5-2.5s3.35,1.39,4.87,2.38a12,12,0,0,0,6.2,1.59,11.66,11.66,0,0,0,6.25-1.59c1.7-1.05,2.52-2.31,2.52-3.79s-.83-2.75-2.57-3.76a11.64,11.64,0,0,0-6.18-1.61,12,12,0,0,0-6.22,1.61c-1.63,1-2.92,2.4-4.87,2.4S411,380.1,409.21,379.09Z" style="fill:#d4012d"/><path d="M312.57,167c43.95,28.51,101.48,74.2,101.48,70.93,0-6-125.92-127.33-142.83-127.33S127,230.63,127,236.6c0,3.15,56.12-35.74,98.21-66.44C257.14,146.89,280.54,146.24,312.57,167Z" style="fill:url(#linear-gradient)"/><path d="M313.25,268.31c43.94,28.51,101.48,74.2,101.48,70.93,0-6-125.93-127.33-142.83-127.33s-144.18,120-144.18,126c0,3.15,56.12-35.74,98.2-66.44C257.82,248.17,281.21,247.53,313.25,268.31Z" style="fill:url(#linear-gradient-2)"/></g></svg>