<?xml version="1.0" ?><svg style="enable-background:new 0 0 24 24;" version="1.1" viewBox="0 0 24 24" xml:space="preserve" xmlns="http://www.w3.org/2000/svg" xmlns:xlink="http://www.w3.org/1999/xlink"><style type="text/css">
	.st0{opacity:0.2;fill:none;stroke:#000000;stroke-width:5.000000e-02;stroke-miterlimit:10;}
</style><g id="grid_system"/><g id="_icons"><path d="M4,17h8.1c0.4,1.7,2,3,3.9,3s3.4-1.3,3.9-3H20c0.6,0,1-0.4,1-1s-0.4-1-1-1h-0.1c-0.4-1.7-2-3-3.9-3s-3.4,1.3-3.9,3H4   c-0.6,0-1,0.4-1,1S3.4,17,4,17z M16,14c1.1,0,2,0.9,2,2s-0.9,2-2,2s-2-0.9-2-2S14.9,14,16,14z"/><path d="M4,9h0.1c0.4,1.7,2,3,3.9,3s3.4-1.3,3.9-3H20c0.6,0,1-0.4,1-1s-0.4-1-1-1h-8.1c-0.4-1.7-2-3-3.9-3S4.6,5.3,4.1,7H4   C3.4,7,3,7.4,3,8S3.4,9,4,9z M8,6c1.1,0,2,0.9,2,2s-0.9,2-2,2S6,9.1,6,8S6.9,6,8,6z"/></g></svg>