<?xml version="1.0" ?><svg viewBox="0 0 550 550" xmlns="http://www.w3.org/2000/svg" xmlns:xlink="http://www.w3.org/1999/xlink"><defs><linearGradient gradientUnits="userSpaceOnUse" id="linear-gradient" x1="289.41" x2="306.62" y1="297.8" y2="297.8"><stop offset="0.52" stop-color="#027f48"/><stop offset="1" stop-color="#0c6535"/></linearGradient><linearGradient id="linear-gradient-2" x1="315.95" x2="339.89" xlink:href="#linear-gradient" y1="232.01" y2="232.01"/><linearGradient id="linear-gradient-3" x1="111.59" x2="217" xlink:href="#linear-gradient" y1="297.8" y2="297.8"/><linearGradient id="linear-gradient-4" x1="205.27" x2="218.91" xlink:href="#linear-gradient" y1="228.07" y2="228.07"/><linearGradient gradientUnits="userSpaceOnUse" id="linear-gradient-5" x1="102" x2="444.85" y1="177.32" y2="358.12"><stop offset="0.25" stop-color="#0c6535"/><stop offset="0.52" stop-color="#027f48"/><stop offset="0.75" stop-color="#0c6535"/></linearGradient><linearGradient id="linear-gradient-6" x1="179.98" x2="316.55" xlink:href="#linear-gradient" y1="310.41" y2="310.41"/><linearGradient id="linear-gradient-7" x1="21.49" x2="528.52" xlink:href="#linear-gradient-5" y1="268.54" y2="268.54"/></defs><title/><g data-name="Layer 53" id="Layer_53"><path d="M427.66,291.34h-7.05l-4.2,12.93h6.74a22.93,22.93,0,0,0,4.53-.84,6.73,6.73,0,0,0,3.24-2,10.26,10.26,0,0,0,2.2-3.7c.67-2.06.67-3.63,0-4.75S430.57,291.34,427.66,291.34Z" style="fill:url(#linear-gradient)"/><path d="M327.75,249.54c3.31,0,5.79-.43,7.47-1.4a14.66,14.66,0,0,0,4.92-4.82c1.59-2.29,3.29-6,5.13-11.14,2.36-6.84,3.14-11.47,2.27-14s-3.33-3.73-7.4-3.73h-3.87L324,249.54Z" style="fill:url(#linear-gradient-2)"/><path d="M187.81,291.34h-7l-4.19,12.93h6.71a23.62,23.62,0,0,0,4.54-.84,7.07,7.07,0,0,0,3.26-2,10.55,10.55,0,0,0,2.2-3.7c.64-2.06.64-3.63,0-4.75S190.71,291.34,187.81,291.34Z" style="fill:url(#linear-gradient-3)"/><polygon points="218.91 216.53 205.27 239.62 216.42 239.62 218.91 216.53" style="fill:url(#linear-gradient-4)"/><path d="M275,155C142.82,155,34.92,206,34.92,268.56S142.82,382.13,275,382.13s240.11-51,240.11-113.57S407.24,155,275,155Zm108.76,82.54,4.49-13.29,43.67-.72L423.19,237l-43.11,20.46,23-20.67ZM349,199.9c4.62,0,8,.81,10.3,2.39a11.26,11.26,0,0,1,4.54,6.7,26.39,26.39,0,0,1,.41,10.35,63,63,0,0,1-3.13,12.45c-2.44,6.86-4.92,12.21-7.44,16a44.54,44.54,0,0,1-8.44,9.49,25.86,25.86,0,0,1-8.86,5.14,35.6,35.6,0,0,1-9.86,1.75H303.26l22.55-64.22Zm-132.53,0h17l-3.56,64.22H213.56l1.25-10.6H197l-6.15,10.6h-16Zm-65.63,0h15.58l-17,48.38h24.35l-5.53,15.84h-40Zm-10,114.4L97.13,315l8.73-13.51L149,281.08l-23,20.67L145.3,301Zm69-18.15a28.31,28.31,0,0,1-4.81,9.16,25.87,25.87,0,0,1-7.08,6.21,22.16,22.16,0,0,1-6.42,2.51,11.25,11.25,0,0,1,3.4,2.33,15.14,15.14,0,0,1,1.48,3.39,20.25,20.25,0,0,1,.93,4l1.71,18.46H181l-2.24-19.48c-.28-2.51-.7-4.12-1.32-4.91a4.17,4.17,0,0,0-3.41-1.48h-1.44l-8.39,25.87H148.16l20.73-63.66h26.67c4.92,0,8.51.48,10.81,1.59s3.72,2.92,4.43,5.77S211.19,292.12,209.85,296.15Zm60.06,13.67a62.06,62.06,0,0,1-9,18.33,40.58,40.58,0,0,1-12.4,11.16,32,32,0,0,1-15.7,3.95c-5.85,0-10.31-1.16-13.37-3.41s-5-6-5.74-10.89,0-11.14,2.45-18.58q5.1-15.57,15-24.26a33,33,0,0,1,22.45-8.69c8.61,0,14.34,2.83,17.13,8.5S273.23,299.59,269.91,309.82Zm3.32-45.7-6.52-35.26-12.37,35.26H239.69l22.53-64.22h14.57l6.55,35.52L295.8,199.9h14.71L288,264.12Zm10.91,78.05,1.18-63.66h16.75l-3.32,45.79,26.41-45.79h16.25l-39.93,63.66Zm96.29-26.95H355.55l-4.08,12.49h27.6l-4.67,14.46H330.75l20.72-63.66h42.84l-4.43,13.61H363.09l-3.32,10.1h24.91Zm69.28-19.07a28.53,28.53,0,0,1-4.82,9.16,25.52,25.52,0,0,1-7.1,6.21,21.46,21.46,0,0,1-6.4,2.51,11.75,11.75,0,0,1,3.43,2.33,16.85,16.85,0,0,1,1.47,3.39,18.58,18.58,0,0,1,.91,4L439,342.17H420.86l-2.24-19.48c-.24-2.51-.64-4.12-1.28-4.91a4.23,4.23,0,0,0-3.46-1.48h-1.39l-8.41,25.87H388l20.73-63.66h26.62c5,0,8.59.48,10.87,1.59a7.84,7.84,0,0,1,4.42,5.77C451.37,288.67,451,292.12,449.71,296.15Z" style="fill:url(#linear-gradient-5)"/><path d="M248.67,292.3c-3.2,0-6.22,1.4-9.13,4.26s-5.34,7.41-7.48,13.91-2.58,11-1.58,13.83,3.23,4.22,6.54,4.22a12.94,12.94,0,0,0,9.35-4.14c2.75-2.73,5.3-7.68,7.61-14.8,2-6,2.41-10.34,1.33-13.12S252.05,292.3,248.67,292.3Z" style="fill:url(#linear-gradient-6)"/><path d="M275,140.87c-139.63,0-253.52,57.39-253.52,127.69S135.38,396.22,275,396.22s253.51-57.34,253.51-127.66S414.65,140.87,275,140.87Zm0,247.92c-136.53,0-247.88-54-247.88-120.23S138.48,148.35,275,148.35s247.9,54,247.9,120.21S411.56,388.79,275,388.79Z" style="fill:url(#linear-gradient-7)"/></g></svg>