<?xml version="1.0" ?><svg viewBox="0 0 550 550" xmlns="http://www.w3.org/2000/svg" xmlns:xlink="http://www.w3.org/1999/xlink"><defs><linearGradient gradientUnits="userSpaceOnUse" id="linear-gradient" x1="272.64" x2="270.9" y1="344.03" y2="22"><stop offset="0" stop-color="#fff"/><stop offset="0.72" stop-color="#212121"/><stop offset="0.98" stop-color="#d9dee2"/></linearGradient><linearGradient gradientUnits="userSpaceOnUse" id="linear-gradient-2" x1="271.61" x2="272.4" y1="46.87" y2="338"><stop offset="0" stop-color="#fff"/><stop offset="0.04" stop-color="#212121"/><stop offset="0.98" stop-color="#d9dee2"/></linearGradient></defs><title/><g id="Temperature"><circle cx="275" cy="252.09" r="101" style="fill:#2b2b2b"/><path d="M28.4,216.4c4.08,4.95,9,10.75,14.74,17.11h0c5.31,5.93,11.33,12.39,18,19.18h0c5.43,5.47,11.27,11.24,17.51,17.07h0c6.75,6.28,13.92,12.69,21.57,19.15h0q10.2,8.63,21.44,17.11h0q12.6,9.5,26.43,18.46h43.39a108.32,108.32,0,0,0,161.46,0h42.78C477.41,271.54,529.3,198.57,529.3,198.57H366.48a108.51,108.51,0,0,0-188.61,0H14.42s4.86,6.82,13.94,17.83Zm54.31,53.36q-9-8.34-17.68-17.07h98.71a109.31,109.31,0,0,0,1.41,17.07Zm378.32,0H379.18a109.31,109.31,0,0,0,1.43-17.07h98.11Q470,261.42,461,269.76Zm50.7-53.36c-4.18,5-9.15,10.81-14.86,17.11H379a109,109,0,0,0-4.41-17.11ZM374.22,288.91h65c-7.2,5.95-14.46,11.68-21.77,17.11H366.3A112,112,0,0,0,374.22,288.91ZM272.17,158.28a93.83,93.83,0,1,1-93.84,93.87A93.85,93.85,0,0,1,272.17,158.28ZM178.05,306H126.3c-7.31-5.43-14.57-11.16-21.77-17.11h65.6A109.24,109.24,0,0,0,178.05,306Zm-8.29-89.62a106.84,106.84,0,0,0-4.43,17.11H46.87c-5.71-6.3-10.68-12.08-14.85-17.11Z" style="fill:url(#linear-gradient)"/><path d="M28.4,216.4c4.08,4.95,9,10.75,14.74,17.11h0c5.31,5.93,11.33,12.39,18,19.18h0c5.43,5.47,11.27,11.24,17.51,17.07h0c6.75,6.28,13.92,12.69,21.57,19.15h0q10.2,8.63,21.44,17.11h0q12.6,9.5,26.43,18.46h43.39a108.32,108.32,0,0,0,161.46,0h42.78C477.41,271.54,529.3,198.57,529.3,198.57H366.48a108.51,108.51,0,0,0-188.61,0H14.42s4.86,6.82,13.94,17.83Zm54.31,53.36q-9-8.34-17.68-17.07h98.71a109.31,109.31,0,0,0,1.41,17.07Zm378.32,0H379.18a109.31,109.31,0,0,0,1.43-17.07h98.11Q470,261.42,461,269.76Zm50.7-53.36c-4.18,5-9.15,10.81-14.86,17.11H379a109,109,0,0,0-4.41-17.11ZM374.22,288.91h65c-7.2,5.95-14.46,11.68-21.77,17.11H366.3A112,112,0,0,0,374.22,288.91ZM272.17,158.28a93.83,93.83,0,1,1-93.84,93.87A93.85,93.85,0,0,1,272.17,158.28ZM178.05,306H126.3c-7.31-5.43-14.57-11.16-21.77-17.11h65.6A109.24,109.24,0,0,0,178.05,306Zm-8.29-89.62a106.84,106.84,0,0,0-4.43,17.11H46.87c-5.71-6.3-10.68-12.08-14.85-17.11Z" style="fill:none;stroke:#2b2b2b;stroke-miterlimit:10"/><path d="M272.17,341.79a89.67,89.67,0,1,0-89.67-89.64A89.65,89.65,0,0,0,272.17,341.79Zm0-172.66a83,83,0,1,1-83,83A83,83,0,0,1,272.17,169.13Z" style="fill:url(#linear-gradient-2)"/><rect height="46.44" style="fill:#fff" width="11.34" x="260.83" y="229.17"/><path d="M227.57,275.61l11.66-27.31v27.31h11.44V229.17H238.09l-13.17,30.62-12.07-30.62H200v46.44h9.74v-28l11.11,28Z" style="fill:#fff"/><polygon points="291.92 247.6 313.5 275.61 322.26 275.61 322.26 229.17 312.4 229.17 312.4 257.4 312.4 257.42 290.68 229.17 282.19 229.17 282.19 275.61 291.92 275.61 291.92 247.6" style="fill:#fff"/><rect height="46.44" style="fill:#fff" width="11.34" x="332.44" y="229.17"/></g></svg>