<?xml version="1.0" ?><svg viewBox="0 0 550 550" xmlns="http://www.w3.org/2000/svg"><title/><g data-name="Layer 52" id="Layer_52"><polygon points="273.11 30.46 202.52 152.81 273.11 274.57 344.22 152.81 273.11 30.46" style="fill:#f70000"/><polygon points="273.11 274.57 344.22 396.48 485.43 396.48 414.87 274.57 273.11 274.57" style="fill:#f70000"/><polygon points="61.3 396.48 202.52 396.48 273.11 274.57 131.93 274.57 61.3 396.48" style="fill:#f70000"/><polygon points="113.52 458.49 102.05 431.76 90.45 431.76 90.45 490.44 100.94 490.44 100.94 452.2 113.52 479.96 126.73 452.2 126.73 490.44 137.24 490.44 137.24 431.76 125.69 431.76 113.52 458.49"/><rect height="58.67" width="10.51" x="146.65" y="431.76"/><polygon points="161.93 440.72 174.51 440.72 174.51 490.44 185.02 490.44 185.02 440.72 197.65 440.72 197.65 431.76 161.93 431.76 161.93 440.72"/><path d="M220.74,456.39c-8.38-4.19-11.58-6.28-11.58-10.46,0-3.72,2.61-5.79,7.36-5.79,5.27,0,7.88,4.73,7.88,9.48H235c-.54-10-5.27-18.35-18.43-18.35-12.08,0-17.85,6.29-17.85,15.19,0,8.35,5.27,13.08,13.1,17.76,11.12,6.3,13.67,7.9,13.67,11.52,0,4.22-3.11,6.81-8.42,6.81-6.27,0-8.88-5.2-8.88-10.43h-10c.55,11,5.29,19.87,18.9,19.87,10,0,18.93-5.74,18.93-16.73C236,465.8,230.19,461.65,220.74,456.39Z"/><path d="M269.71,472.12c0,6.29-3,9.91-8.81,9.91-6.92,0-10.08-3.62-10.08-9.91V431.76H240.39v40.36c0,15.65,11,19.36,20.51,19.36,8.81,0,19.37-4.17,19.37-19.36V431.76H269.71v40.36Z"/><path d="M316,459.54c2.63-.56,8.42-5.24,8.42-13.08,0-9.42-6.88-14.7-17.87-14.7H287.14v58.68h21.55c10.47,0,17.85-6.81,17.85-16.26A14.85,14.85,0,0,0,316,459.54Zm-10,22h-8.43v-40.8h7.92c4.75,0,8.38,2.06,8.38,7.31s-3.15,7.32-8.38,7.32h-4.17v9.4h4.17c6.28,0,10,2.14,10,7.86C315.48,478.93,311.79,481.52,306,481.52Z"/><polygon points="424.73 454.81 403.74 454.81 403.74 431.76 392.75 431.76 392.75 490.44 403.74 490.44 403.74 464.75 425.27 464.75 425.27 490.44 435.72 490.44 435.72 431.76 424.73 431.76 424.73 454.81"/><rect height="58.67" width="10.52" x="332.29" y="431.76"/><rect height="58.67" width="10.49" x="445.79" y="431.76"/><path d="M372.31,455.85c-8.48-4.69-11.62-6.81-11.62-10.46s3.11-5.74,7.31-5.74c5.27,0,7.91,4.18,8.43,9.39h9.95c-.51-9.91-5.19-18.32-18.38-18.32-12.08,0-17.86,6.32-17.86,15.21,0,8.37,5.28,13.05,13.16,17.3,11.06,6.24,13.59,8.32,13.59,12,0,4.15-3.07,6.77-8.3,6.77-6.33,0-9-5.77-9-11h-10c.5,11.52,5.24,19.92,18.95,19.92,10,0,18.92-5.77,18.92-16.21C387.46,464.75,381.7,461.12,372.31,455.85Z"/></g></svg>