<?xml version="1.0" ?><svg viewBox="0 0 550 550" xmlns="http://www.w3.org/2000/svg" xmlns:xlink="http://www.w3.org/1999/xlink"><defs><radialGradient cx="275.88" cy="337.16" gradientUnits="userSpaceOnUse" id="radial-gradient" r="172.66"><stop offset="0.9" stop-color="#6b6b6b"/><stop offset="1" stop-color="#fff"/></radialGradient></defs><title/><g data-name="Layer 35" id="Layer_35"><path d="M352.36,156.7a35.57,35.57,0,0,1,5.92,8.16l1.08-1.08Z" style="fill:#424b55"/><path d="M45.83,463.84A30.69,30.69,0,0,0,49.14,461l5.63-5.58C51.74,458.41,48.77,461.21,45.83,463.84Z" style="fill:#424b55"/><path d="M31.32,435.94l-3.51,3.48a4.58,4.58,0,0,1-.93.71C28.33,438.8,29.82,437.4,31.32,435.94Z" style="fill:#424b55"/><path d="M275.85,164.5c-95.34,0-172.63,77.3-172.63,172.7s77.29,172.61,172.63,172.61S448.54,432.5,448.54,337.2A172.69,172.69,0,0,0,275.85,164.5Zm0,330A157.36,157.36,0,1,1,433.24,337.2,157.35,157.35,0,0,1,275.85,494.53Z" style="fill:url(#radial-gradient)"/><path d="M276.2,163.3c-95.93,0-173.72,77.78-173.72,173.77S180.27,510.75,276.2,510.75,450,433,450,337.07A173.74,173.74,0,0,0,276.2,163.3Zm0,343.11A169.36,169.36,0,1,1,445.56,337.07,169.35,169.35,0,0,1,276.2,506.41Z"/><path d="M276.2,179.6a157.43,157.43,0,0,0,0,314.86c86.95,0,157.46-70.5,157.46-157.39A157.46,157.46,0,0,0,276.2,179.6Zm0,300.93A143.49,143.49,0,1,1,419.71,337.07,143.47,143.47,0,0,1,276.2,480.53Z"/><path d="M342.39,390v5.37c0,1.57-1.23,3.34-2.83,3.34-1.14,0-2.31.06-3.47,0-4.1,0-4.85-5.11-4-8,8.76-31.41,10.92-50.45,10.78-64.33-.1-14.68-.45-29.38-7.09-48.86-6.41-18.68-12.26-37-43.13-64.93a10.78,10.78,0,0,0-7.05-3c-3-.23-5.54-.32-8.62-.32a128.19,128.19,0,0,0-36.9,5.39c-4.37,1.3-3.74,4.39-1.33,6.41,11.68,10,27.5,25,38.39,43.69-6.89.73-12.18-3.18-16.6-7.42a211.63,211.63,0,0,0-41.84-30.5c-2.09-1.19-4.16-1.66-6.25-.47a117.27,117.27,0,0,0-32.8,27.22c-1.81,2.14-.62,3.71,1.15,4.63A241.84,241.84,0,0,1,226.91,291c-3.37,2.86-8.71,2-16.48-2.15a183.11,183.11,0,0,0-40.18-15.13,5.24,5.24,0,0,0-6.05,2.12c-7,12.18-11.83,26.75-14.11,41.48a5.19,5.19,0,0,0,4.3,5.9c25.49,4.42,70.92,16.43,78.49,68.76.65,4.57-3.52,8.64-9,6-7.66-3.58-15.32-7.14-23-10.76a6.16,6.16,0,0,0-2.59-.68H162.17c-5.1,0-7.23,4.91-3.88,8.73a226.3,226.3,0,0,1,23.46,32.23,2.51,2.51,0,0,0,2.45,1.41H200a5.29,5.29,0,0,0,2.92-.83l14.85-8.7a6,6,0,0,1,2.91-.48H339.49a2.67,2.67,0,0,1,2.9,2.62v5.85a3.47,3.47,0,0,0,4,3.42,74.5,74.5,0,0,0,38.94-19.18,4,4,0,0,0,0-5.89,73.7,73.7,0,0,0-38.94-19.13A3.44,3.44,0,0,0,342.39,390Zm-43-38.16a16,16,0,1,1-16,16.05A16,16,0,0,1,299.39,351.84Z" style="fill:#40b739;stroke:#2b2b2b;stroke-miterlimit:10"/><path d="M102,34.05l7.34,8.33a1.58,1.58,0,0,0,1.46.67h15.34a1.55,1.55,0,0,0,1.44-.67l7.34-8.33c.65-.73.4-1.45-.65-1.45H123.92a1.77,1.77,0,0,0-1.47.72l-3.13,4.54h-1.69l-3.14-4.54A1.76,1.76,0,0,0,113,32.6H102.66C101.64,32.6,101.4,33.32,102,34.05Z"/><path d="M275.89,106.61c33.7,0,38.28-1.69,38.28-29.88v-.67c0-28.09-4.58-29.78-38.28-29.78S237.58,48,237.58,76.06v.77C237.58,104.92,242.17,106.61,275.89,106.61ZM256.25,76.06c0-16.29.65-16.53,19.64-16.53s19.63.24,19.63,16.53v.77c0,16.27-.66,16.49-19.63,16.49s-19.64-.22-19.64-16.49Z"/><path d="M455,48.34a1.28,1.28,0,0,0-1.37-.86H429a1.33,1.33,0,0,0-1.38.86L399.9,104c-.4.87-.07,1.44.88,1.44h16a1.26,1.26,0,0,0,1.36-.86l4.21-8.23h37.93l4.2,8.23a1.3,1.3,0,0,0,1.39.86h16c1,0,1.32-.57.91-1.44ZM428.44,84.16l11.82-23.41h2.11l11.82,23.41Z"/><path d="M163.71,105.39h15a1.07,1.07,0,0,0,1.2-1.19v-14L189,83l22,21.7a1.84,1.84,0,0,0,1.55.66h21.07c1,0,1.38-.72.57-1.44l-32-31.31,30.07-23.72c.9-.61.55-1.44-.58-1.44h-19.6a1.88,1.88,0,0,0-1.44.58L179.88,72.59V48.69a1.08,1.08,0,0,0-1.2-1.21h-15a1.07,1.07,0,0,0-1.19,1.21V104.2A1.07,1.07,0,0,0,163.71,105.39Z"/><path d="M152.7,87.14c0-15-4.41-16.24-23-16.81l-21.55-.64c-9.89-.32-10.08-1.41-10.08-5.84S99.3,59.33,123,59.33c4.51,0,18.83.2,26.4.39a1.06,1.06,0,0,0,1.21-1.2V48.69a1.11,1.11,0,0,0-1.14-1.25c-7.48-.43-19.7-.87-28.45-.87-34.45,0-40,.67-40,18.44,0,15.24,3.36,17.21,25.39,18l19.79.58c9.25.32,9.41,1.48,9.41,4.91,0,4.76-.4,5-22.27,5-10.24,0-20.76-.4-30.35-.72-.78-.11-1.18.32-1.18,1.1V104.2A1.2,1.2,0,0,0,83,105.5c8.49.38,22.42.76,30.44.76C148.52,106.26,152.7,106.23,152.7,87.14Z"/><path d="M326.33,105.39h32.11c34.33,0,38.85-1.69,38.85-28.7V76.2c0-27-4.52-28.72-38.85-28.72H326.33a1.1,1.1,0,0,0-1.22,1.21V104.2A1.1,1.1,0,0,0,326.33,105.39Zm16.26-44.72h15.92c19.3,0,20.5.51,20.5,15.39v.77c0,14.9-1.2,15.37-20.5,15.37H342.59Z"/></g></svg>