<?xml version="1.0" ?><svg viewBox="0 0 550 550" xmlns="http://www.w3.org/2000/svg" xmlns:xlink="http://www.w3.org/1999/xlink"><defs><radialGradient cx="272.55" cy="212.99" gradientUnits="userSpaceOnUse" id="New_Gradient_Swatch_2" r="158.96"><stop offset="0" stop-color="#fff"/><stop offset="0.13" stop-color="#f9f9f9"/><stop offset="0.3" stop-color="#e9e9e9"/><stop offset="0.5" stop-color="#cecece"/><stop offset="0.71" stop-color="#a8a8a8"/><stop offset="0.93" stop-color="#787878"/><stop offset="0.98" stop-color="#6b6b6b"/></radialGradient><radialGradient cx="211.39" cy="175.65" fx="480.6169794731235" fy="219.32398086065558" gradientTransform="matrix(-0.96, -0.27, 0.25, -0.87, 371.6, 385.43)" gradientUnits="userSpaceOnUse" id="radial-gradient" r="272.75"><stop offset="0.49" stop-color="#0995d0"/><stop offset="0.61" stop-color="#0993cd"/><stop offset="0.68" stop-color="#0b8dc4"/><stop offset="0.75" stop-color="#0d83b5"/><stop offset="0.81" stop-color="#10759f"/><stop offset="0.87" stop-color="#146283"/><stop offset="0.92" stop-color="#184b60"/><stop offset="0.97" stop-color="#1e3038"/><stop offset="1" stop-color="#212121"/></radialGradient><radialGradient cx="188.86" cy="184.95" id="New_Gradient_Swatch_2-2" r="115.81" xlink:href="#New_Gradient_Swatch_2"/><radialGradient cx="367.99" cy="165.96" id="New_Gradient_Swatch_2-3" r="49.55" xlink:href="#New_Gradient_Swatch_2"/><radialGradient cx="301.78" cy="221.7" id="New_Gradient_Swatch_2-4" r="49.55" xlink:href="#New_Gradient_Swatch_2"/><radialGradient cx="392.47" cy="221.7" id="New_Gradient_Swatch_2-5" r="49.55" xlink:href="#New_Gradient_Swatch_2"/><radialGradient cx="333.99" cy="266.54" id="New_Gradient_Swatch_2-6" r="49.55" xlink:href="#New_Gradient_Swatch_2"/><radialGradient cx="235.65" cy="272.7" id="New_Gradient_Swatch_2-7" r="49.55" xlink:href="#New_Gradient_Swatch_2"/></defs><title/><g data-name="Layer 52" id="Layer_52"><path d="M263.56,397.71a16.35,16.35,0,0,0,9-14.55c0-3.73-1.69-16.26-18.89-16.26H195.82v61.91c.12,0,35.75.29,57.82,0,19.21-.14,20.06-11.92,20.06-17.44C273.7,401.5,263.7,397.71,263.56,397.71ZM214.4,379.43c.47-.3,21.82,0,34,0,3.62,0,7,2.27,7,6.35,0,4.67-2.91,6.69-6.4,6.69-13.4,0-34.13.28-34.6,0v-13Zm34.88,36.88c-14.82,0-34.41.3-34.88,0V403c.47-.31,23.27-.17,34.62-.31a7,7,0,0,1,7.55,7C256.57,414.28,252.93,416.31,249.28,416.31Z"/><path d="M435.65,405c.45-.13,9.31-6.07,9.31-16,0-11.62-4.65-22.08-21.81-22.08H367.9v61.91h18.62v-19.2c.13,0,22.37.17,33.44,0,4.8-.13,8.74,5,8.74,9.31v9.89h16.58v-9.57C445.28,410.2,435.78,405,435.65,405Zm-15.11-6.7c-13.38,0-33.74.17-34,0V379.43c.45-.3,21.83,0,34,0,4.65,0,7.56,5.47,7.56,9.84S425,398.27,420.54,398.27Z"/><path d="M306.59,366.88l-33.45,61.93h18.61l7-12.5h38.95l6.71,12.5h18.31l-33.44-61.93ZM305.42,403l12.2-22.41L330.4,403Z"/><path d="M512.67,366.88c.32.46,0,27.06-.25,44.2,0,2.35-.87,5.23-4.36,5.23H475.79c-3.81,0-5.21-2.2-5.21-4.94,0-19.19-.77-44.2-.32-44.81H451.93c-.27.46-.27,30,0,49.45.15,9.57,10.21,12.8,21.54,12.8,16,0,24.7.29,42.48,0,9.29-.16,15.54-5.06,15.37-12.8-.13-17.11-.28-49.13-.28-49.13Z"/><path d="M90.28,390.45c-14.84-.74-32.88-.57-43.92-1.18-6.1-.29-6.1-11.91.58-11.91H81c4.63,0,4.63,5.07,4.63,5.24h16.86c-.29-.73,1.75-18-14.54-18H38.8c-8.12,0-14,4.94-14,11v13.08c0,8.48,7.56,12.53,18,12.84,15.4.38,24.71.85,36.94,1.45,10.18.56,8.72,13.19,0,13.36-11.63.3-18.89,0-31.67,0-7.27,0-7-7.28-7-7.28H24.28a17.82,17.82,0,0,0,0,5.83,16.17,16.17,0,0,0,16,13.95H88.82c7.39,0,15-4.07,14.82-12.8,0,0-.3-12.78-.3-13.06C103.37,395.41,97.25,390.88,90.28,390.45Z"/><path d="M170.2,366.88c.31.46.31,27.06,0,44.2,0,2.35-.88,5.23-4.33,5.23H133.3c-3.49,0-5.25-2.2-5.25-4.94,0-19.19-.28-44.32,0-44.81H109.44c-.28.46.13,30,.3,49.45.15,9.46,9.91,12.8,21.23,12.8,16.25,0,25,.29,42.46,0,9.29-.16,15.82-5.06,15.69-12.8-.17-17.11-.29-49.13-.29-49.13Z"/><path d="M405.89,132.31C371,111.74,323.5,98.18,272.08,98.18c-51.14,0-98.34,13.63-133.17,34.18-36.57,21.7-59.63,51.15-59.63,81.1s23,59,59.38,80.43c34.88,20.44,82.24,33.92,133.33,33.92,51.65,0,99.11-13.31,134.08-33.79,36.67-21.5,59.75-50.63,59.75-80.56S442.61,154,405.89,132.31Zm-2.6,156.79c-34.21,19.94-80.7,33.07-131.21,33.07-50.22,0-96.47-13.13-130.49-33.07-34.81-20.45-56.65-47.84-56.65-75.64s22-55.57,56.83-76.21c34-20.14,80.22-33.5,130.31-33.5,50.38,0,96.82,13.22,130.94,33.46,35,20.64,57.13,48.41,57.13,76.25S438.18,268.69,403.29,289.1Z" style="stroke:#000;stroke-miterlimit:10;stroke-width:0.5182175040245056px;fill:url(#New_Gradient_Swatch_2)"/><path d="M460.15,213.46c0,27.8-22,55.23-56.86,75.64-34.21,19.94-80.7,33.07-131.21,33.07-50.22,0-96.47-13.13-130.49-33.07-34.81-20.45-56.65-47.84-56.65-75.64s22-55.57,56.83-76.21c34-20.14,80.22-33.5,130.31-33.5,50.38,0,96.82,13.22,130.94,33.46C438.05,157.85,460.15,185.62,460.15,213.46Z" style="fill:url(#radial-gradient)"/><polygon points="201.16 128.41 183.24 173.76 103.86 190.82 183.24 207.72 202.1 255.99 221.01 208.75 307.02 190.82 220.05 171.94 201.16 128.41" style="fill:url(#New_Gradient_Swatch_2-2)"/><polygon points="373.26 141.77 365.59 161.17 331.63 168.47 365.59 175.7 373.66 196.35 381.75 176.14 418.54 168.47 381.34 160.39 373.26 141.77" style="fill:url(#New_Gradient_Swatch_2-3)"/><polygon points="307.04 197.51 299.38 216.91 265.42 224.21 299.38 231.44 307.44 252.09 315.53 231.88 352.33 224.21 315.12 216.13 307.04 197.51" style="fill:url(#New_Gradient_Swatch_2-4)"/><polygon points="397.74 197.51 390.07 216.91 356.11 224.21 390.07 231.44 398.14 252.09 406.23 231.88 443.02 224.21 405.82 216.13 397.74 197.51" style="fill:url(#New_Gradient_Swatch_2-5)"/><polygon points="339.26 242.36 331.59 261.76 297.63 269.06 331.59 276.29 339.66 296.94 347.75 276.73 384.54 269.06 347.34 260.98 339.26 242.36" style="fill:url(#New_Gradient_Swatch_2-6)"/><polygon points="240.91 248.51 233.25 267.91 199.29 275.21 233.25 282.44 241.31 303.09 249.4 282.88 286.2 275.21 248.99 267.13 240.91 248.51" style="fill:url(#New_Gradient_Swatch_2-7)"/></g></svg>