<?xml version="1.0" ?><svg viewBox="0 0 550 550" xmlns="http://www.w3.org/2000/svg" xmlns:xlink="http://www.w3.org/1999/xlink"><defs><style>.cls-1{fill:#ed0714;}.cls-2{stroke:#4b4c4c;stroke-miterlimit:10;stroke-width:1.21px;fill:url(#linear-gradient);}.cls-3{fill:#f90629;}</style><linearGradient gradientUnits="userSpaceOnUse" id="linear-gradient" x1="55.6" x2="491.5" y1="311.44" y2="311.44"><stop offset="0" stop-color="#fff"/><stop offset="0.22"/><stop offset="0.38" stop-color="#c1c0c0"/><stop offset="0.72" stop-color="#212121"/><stop offset="0.98" stop-color="#d9dee2"/></linearGradient></defs><title/><g data-name="Short Light" id="Short_Light"><g data-name="Layer 8" id="Layer_8"><path class="cls-1" d="M290.67,207.12l-18,21.56-18-21.56c-28.15-.93-92.84.91-132,15.82,5.38,9.55,29,23.26,41.9,26.25.72-18.86,29.25-22.77,56.75-22.77l51.37,257.35L324.1,226.42c27.47,0,56,3.91,56.75,22.77,12.94-3,36.45-16.7,41.92-26.25C383.52,208,318.82,206.19,290.67,207.12Z"/><path class="cls-2" d="M470.17,159.83c-3.83,22.46-8.11,45.3-14.77,69a676,676,0,0,1-38.52,104.81c-17.73,38.22-44.73,79.43-73.29,110.76s-58.84,56.15-71.79,61c-13-4.9-41.58-29.62-70.07-61S146.25,371.22,128.5,333c-15.61-33.67-27.32-66.47-37.93-104.33a649.6,649.6,0,0,1-15.46-67.75c-4.36-25.22-6.59-46.1-9.68-74.89l-9.83,9c.15,23.37,4.17,44.75,8,67.68,3.8,23.15,8.6,47,14.56,69.26,8,30.24,19.34,68.69,36.86,107.55,18.81,41.84,42,82.4,69.92,117.39,25.87,32.38,55.88,59.95,86.9,80.18,31.08-20.23,61-47.8,86.9-80.18,27.89-35,51.1-75.55,70-117.39,17.54-38.86,28.8-77.31,36.88-107.55,5.94-22.29,10.76-46.11,14.52-69.26,3.87-22.93,9.37-46,11.44-68.24l-12.38-8.75C477.55,113.92,474.46,134.61,470.17,159.83Z"/><path class="cls-3" d="M114.47,211.08c38.11-12.48,83.29-18.43,131-19.81,18-.57,36.41-.57,54.48,0,47.64,1.38,92.87,7.33,131,19.81L441,197.31c-45-14.21-92.72-18.9-140.47-20.1-18.47-.45-37.11-.45-55.56,0-47.77,1.2-95.52,5.89-140.47,20.1Z"/><path d="M123.49,324.85c10.87,23,22.31,45.12,36.06,65.94,31.35,47.65,68.65,88.55,113.14,117,44.54-28.45,81.8-69.35,113.2-117,13.68-20.82,25.18-43,36-65.94C455,254.72,475,165.24,480.49,86c-18.55-13.68-38.85-23.76-59.67-32.13a398.14,398.14,0,0,0-60.39-19.09A392.78,392.78,0,0,0,124.53,53.9C103.79,62.27,83.44,72.35,64.86,86,70.37,165.24,90.36,254.72,123.49,324.85Zm2.36-268.13c18.51-7.48,39.1-14.51,59.9-19.07a406.82,406.82,0,0,1,173.94,0c20.75,4.56,41.41,11.59,59.88,19.07,24.11,9.78,44.7,20.74,57.85,30.73-3.2,62.66-20,152.56-59.1,236.85a547.71,547.71,0,0,1-35.48,65.16c-33.2,52.22-76.92,93.82-110.15,115.11-33.2-21.29-76.94-62.89-110.16-115.11A565.53,565.53,0,0,1,127,324.3C88.05,240,71.22,150.11,68,87.45,81.17,77.46,101.68,66.5,125.85,56.72Z"/><polygon class="cls-1" points="401.18 151.87 410.19 151.87 410.19 133.06 443.02 133.06 443.02 151.87 452.04 151.87 452.04 123.64 401.18 123.57 401.18 151.87"/><path class="cls-1" d="M257.9,142.61c-4.74,1.87-8.26,5-9.26,9.07l-.16.4h50.9V123.74H257.52v-9.19h32.22c4.87-1.42,8.43-5,9.4-9.2H248.48V133h41.87v9.61Z"/><path class="cls-1" d="M374.64,142.49H334.35l.06-37.14h-9v46.23l41.35.1A12.86,12.86,0,0,0,374.64,142.49Z"/><path class="cls-1" d="M409,114.65h34.89c4.92-1.86,8.37-5.08,9.38-9.25H399.4C400.36,109.57,404.13,112.79,409,114.65Z"/><path class="cls-1" d="M177.83,114.82h34.95c4.92-1.86,8.49-5.19,9.45-9.38H168.36C169.33,109.63,173,113,177.83,114.82Z"/><path class="cls-1" d="M177.83,152h34.95c4.92-1.84,8.49-5.32,9.45-9.41H168.36C169.33,146.7,173,150.18,177.83,152Z"/><path class="cls-1" d="M96.49,114.72h14.68l.76.27v37.09h9.17V115l.83-.27h14.7c4.83-1.89,8.41-5.19,9.45-9.37v-.12H87v.12C88.08,109.53,91.64,112.83,96.49,114.72Z"/><path class="cls-1" d="M177.83,133h34.95c4.92-1.78,8.49-5.3,9.45-9.37H168.36C169.33,127.7,173,131.22,177.83,133Z"/></g></g></svg>