<svg viewBox="0 0 512 512" xml:space="preserve" xmlns="http://www.w3.org/2000/svg" enable-background="new 0 0 512 512"><path d="M433.64 257.72c0-63.46-34.22-122.53-89.31-154.15-7.66-4.4-17.44-1.76-21.84 5.91-4.4 7.66-1.75 17.44 5.91 21.84 45.18 25.94 73.24 74.37 73.24 126.4 0 76.89-59.9 140.05-135.48 145.28l26.54-26.54c6.25-6.25 6.25-16.38 0-22.63s-16.38-6.25-22.63 0L219.3 404.6c-3 3-4.69 7.07-4.69 11.31s1.69 8.31 4.69 11.31L270.07 478c3.12 3.12 7.22 4.69 11.31 4.69s8.19-1.56 11.31-4.69c6.25-6.25 6.25-16.38 0-22.63l-20.74-20.74c90.51-8.09 161.69-84.34 161.69-176.91zM219.3 158.16c3.12 3.12 7.22 4.69 11.31 4.69 4.09 0 8.19-1.56 11.31-4.69l50.77-50.77c3-3 4.69-7.07 4.69-11.31s-1.69-8.31-4.69-11.31L241.93 34c-6.25-6.25-16.38-6.25-22.63 0s-6.25 16.38 0 22.63l23.92 23.92c-92.01 6.57-164.86 83.52-164.86 177.18 0 63.5 34.25 122.59 89.4 154.21 2.51 1.44 5.25 2.12 7.94 2.12 5.55 0 10.94-2.89 13.89-8.04 4.4-7.67 1.74-17.44-5.92-21.84-45.22-25.93-73.31-74.38-73.31-126.45 0-75.61 57.92-137.95 131.73-144.97l-22.79 22.79c-6.25 6.23-6.25 16.36 0 22.61z" fill="#000000" class="fill-333333"></path></svg>